<?xml version="1.0" encoding="utf-8"?>
<!-- Svg Vector Icons : http://www.onlinewebfonts.com/icon -->
<!DOCTYPE svg PUBLIC "-//W3C//DTD SVG 1.1//EN" "http://www.w3.org/Graphics/SVG/1.1/DTD/svg11.dtd">
<svg version="1.1" xmlns="http://www.w3.org/2000/svg" xmlns:xlink="http://www.w3.org/1999/xlink" x="0px" y="0px" viewBox="0 0 1000 1000" enable-background="new 0 0 1000 1000" xml:space="preserve" fill="#f9f9f9">
<metadata> Svg Vector Icons : http://www.onlinewebfonts.com/icon </metadata>
<g><g transform="translate(0.000000,511.000000) scale(0.100000,-0.100000)"><path d="M2503.4,4483.4C1481,4395,559.5,3652.3,224.2,2644.4c-107-320.9-133.7-541-121.4-942.1c12.3-372.3,45.3-565.7,150.2-888.7C368.1,463.8,629.4-7.2,884.5-317.9c421.7-514.3,814.6-859.9,1906.9-1686.8c726.2-549.3,940.1-724.1,1252.8-1028.6c329.1-320.9,547.2-608.9,703.5-931.9c131.7-271.5,185.1-327.1,279.8-302.4c86.4,20.6,107,45.3,193.4,234.5c152.2,329.1,362,613,699.4,948.3c273.6,269.5,588.3,530.7,1283.6,1059.4c652.1,497.8,878.4,678.8,1172.5,938.1C9226-338.4,9697.1,387.7,9859.6,1204.4c53.5,263.3,53.5,857.8,2.1,1100.5c-123.4,573.9-368.2,1030.6-765.2,1429.7c-306.5,308.6-619.2,501.9-1024.4,637.7c-288,94.6-493.7,121.4-845.5,107c-487.5-20.6-896.9-158.4-1322.7-448.5c-213.9-146.1-602.7-539-765.2-773.5l-131.7-189.2l-72,117.2c-191.3,308.6-510.2,654.2-787.9,853.7C3680.1,4372.3,3079.4,4534.8,2503.4,4483.4z M3248.1,4096.7c639.8-166.6,1137.6-600.7,1520.2-1326.8c115.2-220.1,168.7-269.5,263.3-248.9c74.1,16.5,92.6,39.1,216,257.1c323,569.8,775.5,1005.9,1252.8,1207.5c561.6,236.6,1164.3,218,1740.3-57.6c487.5-232.5,841.3-578,1071.7-1055.3c189.3-388.8,263.3-767.3,238.6-1224c-20.6-423.8-100.8-717.9-302.4-1112.9c-211.9-415.5-547.2-829-995.6-1234.3c-327.1-294.2-485.5-421.7-1193.1-966.8c-748.8-576-1003.9-787.9-1324.8-1100.6c-271.5-265.4-436.1-458.7-602.7-707.6c-57.6-86.4-111.1-164.6-119.3-172.8c-8.2-10.3-59.7,53.5-113.1,141.9c-205.7,329.1-510.2,668.6-927.8,1034.7c-246.9,218-475.2,397-1293.9,1024.4c-551.3,423.8-785.8,619.2-1077.9,901c-802.3,775.5-1154,1497.6-1154,2367.7c0,654.2,220.1,1195.2,666.5,1641.6c341.5,339.4,849.6,594.5,1339.2,670.6C2643.3,4164.6,3065,4144,3248.1,4096.7z"/></g></g>
</svg>